<svg width="136" height="56" viewBox="0 0 136 56" fill="none" xmlns="http://www.w3.org/2000/svg">
<g clip-path="url(#clip0_1_19)">
<path d="M0 24.3355V29.26C1.70283 29.2588 3.38919 29.5895 4.96257 30.2331C6.53596 30.8766 7.96549 31.8205 9.16937 33.0106C10.373 34.2003 11.3275 35.6128 11.9783 37.1672C12.6292 38.7217 12.9636 40.3877 12.9625 42.07H17.9421C17.9376 37.3685 16.0459 32.8608 12.6822 29.536C9.3185 26.2112 4.75748 24.3409 0 24.3355H0Z" fill="white"/>
<path d="M24.9029 15.47H17.0113C21.0035 17.9701 24.3862 21.3126 26.9167 25.2574V17.4587C26.9163 16.9311 26.704 16.4253 26.3263 16.0524C25.9487 15.6795 25.4367 15.47 24.9029 15.47V15.47Z" fill="white"/>
<path d="M4.95833 15.47H0V19.9038C5.94699 19.9099 11.6487 22.2472 15.8539 26.4028C20.0591 30.5585 22.4244 36.193 22.4308 42.07H26.9167V37.17C25.9024 31.7846 23.2617 26.8289 19.3421 22.9554C15.4225 19.082 10.4079 16.4723 4.95833 15.47V15.47Z" fill="white"/>
<path d="M39.122 18.3981H35.9614V34.1411H39.122V18.3981Z" fill="white"/>
<path d="M50.7429 25.2189C50.2167 24.7462 49.6008 24.3815 48.931 24.1458C47.492 23.6465 45.9237 23.6465 44.4847 24.1458C43.8146 24.3813 43.1984 24.7461 42.6721 25.2189C42.156 25.6892 41.7436 26.2597 41.4609 26.8947C41.1687 27.5875 41.0182 28.3306 41.0182 29.0812C41.0182 29.8317 41.1687 30.5748 41.4609 31.2676C41.7425 31.9045 42.155 32.4765 42.6721 32.9476C43.1975 33.4208 43.8133 33.7854 44.4833 34.02C45.9222 34.5202 47.4907 34.5202 48.9295 34.02C49.5998 33.7854 50.2158 33.4208 50.7415 32.9476C51.2584 32.4763 51.6708 31.9043 51.9527 31.2676C52.2449 30.5748 52.3954 29.8317 52.3954 29.0812C52.3954 28.3306 52.2449 27.5875 51.9527 26.8947C51.6702 26.2599 51.2584 25.6894 50.7429 25.2189ZM48.5725 30.9351C48.0607 31.3907 47.3963 31.6428 46.7075 31.6428C46.0187 31.6428 45.3543 31.3907 44.8425 30.9351C44.4123 30.4103 44.1776 29.7555 44.1776 29.0801C44.1776 28.4047 44.4123 27.7499 44.8425 27.2251C45.3543 26.7695 46.0187 26.5174 46.7075 26.5174C47.3963 26.5174 48.0607 26.7695 48.5725 27.2251C49.0027 27.7499 49.2374 28.4047 49.2374 29.0801C49.2374 29.7555 49.0027 30.4103 48.5725 30.9351V30.9351Z" fill="white"/>
<path d="M62.0897 25.354H62.05C61.9038 25.1512 61.7341 24.9661 61.5442 24.8024C61.3143 24.6014 61.0596 24.4297 60.7863 24.2914C60.0955 23.9411 59.3287 23.7626 58.5523 23.7713C57.8719 23.7595 57.199 23.9134 56.593 24.2193C56.0283 24.5083 55.5297 24.9088 55.1282 25.396C54.7187 25.8982 54.4045 26.4695 54.201 27.0823C53.9845 27.7136 53.8742 28.3757 53.8744 29.0423C53.8664 29.7578 53.9878 30.469 54.2328 31.1423C54.4548 31.7568 54.8009 32.3202 55.25 32.7985C55.6974 33.2665 56.2405 33.6352 56.843 33.88C57.4982 34.1439 58.2004 34.2748 58.9078 34.265C59.4311 34.2561 59.9485 34.1539 60.435 33.9633C60.9806 33.7588 61.4533 33.4002 61.7943 32.9322H61.8368V33.9122C61.8486 34.2391 61.7941 34.565 61.6765 34.8707C61.5589 35.1764 61.3805 35.4558 61.1518 35.6923C60.8617 35.9459 60.5226 36.1388 60.1549 36.2591C59.7872 36.3794 59.3986 36.4247 59.0127 36.3923C58.4007 36.3991 57.7942 36.2784 57.2326 36.0381C56.6739 35.7914 56.1525 35.4691 55.6835 35.0805L53.9346 37.66C54.6495 38.229 55.485 38.6312 56.3791 38.8367C57.2638 39.0377 58.1687 39.1389 59.0764 39.1384C61.0711 39.1384 62.5565 38.6421 63.5325 37.6495C64.5086 36.6569 64.9969 35.2028 64.9974 33.2871V24.0212H62.0932L62.0897 25.354ZM61.8998 29.9663C61.7751 30.2626 61.5924 30.5317 61.3622 30.758C61.1278 30.9888 60.853 31.1757 60.5512 31.3096C60.2377 31.4472 59.8986 31.5182 59.5556 31.5182C59.2126 31.5182 58.8735 31.4472 58.56 31.3096C58.2622 31.1738 57.991 30.9871 57.7589 30.758C57.5277 30.5297 57.3443 30.2587 57.2191 29.9603C57.094 29.662 57.0295 29.3422 57.0295 29.0192C57.0295 28.6962 57.094 28.3764 57.2191 28.0781C57.3443 27.7797 57.5277 27.5087 57.7589 27.2804C57.9911 27.0513 58.2623 26.8644 58.56 26.7281C58.8736 26.591 59.2127 26.5202 59.5556 26.5202C59.8985 26.5202 60.2376 26.591 60.5512 26.7281C60.8529 26.8625 61.1277 27.0496 61.3622 27.2804C61.7099 27.6258 61.9465 28.0651 62.0421 28.543C62.1378 29.0209 62.0883 29.5161 61.8998 29.9663V29.9663Z" fill="white"/>
<path d="M76.8712 25.2189C76.345 24.7462 75.7291 24.3815 75.0593 24.1458C73.6203 23.6465 72.052 23.6465 70.613 24.1458C69.9429 24.3813 69.3267 24.7461 68.8004 25.2189C68.2843 25.6892 67.8719 26.2597 67.5892 26.8947C67.2969 27.5875 67.1465 28.3306 67.1465 29.0812C67.1465 29.8317 67.2969 30.5748 67.5892 31.2676C67.8708 31.9045 68.2833 32.4765 68.8004 32.9476C69.3262 33.4209 69.9425 33.7855 70.613 34.02C72.0519 34.5202 73.6204 34.5202 75.0593 34.02C75.7295 33.7854 76.3455 33.4208 76.8712 32.9476C77.3883 32.4765 77.8007 31.9045 78.0824 31.2676C78.3746 30.5748 78.5251 29.8317 78.5251 29.0812C78.5251 28.3306 78.3746 27.5875 78.0824 26.8947C77.7997 26.2597 77.3873 25.6892 76.8712 25.2189V25.2189ZM74.7008 30.9351C74.189 31.3907 73.5246 31.6428 72.8358 31.6428C72.147 31.6428 71.4825 31.3907 70.9708 30.9351C70.5406 30.4103 70.3059 29.7555 70.3059 29.0801C70.3059 28.4047 70.5406 27.7499 70.9708 27.2251C71.4825 26.7695 72.147 26.5174 72.8358 26.5174C73.5246 26.5174 74.189 26.7695 74.7008 27.2251C75.131 27.7499 75.3657 28.4047 75.3657 29.0801C75.3657 29.7555 75.131 30.4103 74.7008 30.9351Z" fill="white"/>
<path d="M82.7178 24.0912H81.0227V34.1411H82.7178V24.0912Z" fill="white"/>
<path d="M81.8706 18.9378C81.7062 18.9347 81.543 18.9656 81.3914 19.0284C81.2398 19.0912 81.1031 19.1845 80.9901 19.3025C80.8178 19.4742 80.7007 19.6925 80.6537 19.9299C80.6067 20.1672 80.6319 20.413 80.726 20.6363C80.8201 20.8595 80.979 21.0502 81.1826 21.1844C81.3862 21.3186 81.6255 21.3901 81.8702 21.3901C82.115 21.3901 82.3542 21.3186 82.5578 21.1844C82.7615 21.0502 82.9204 20.8595 83.0145 20.6363C83.1086 20.413 83.1337 20.1672 83.0867 19.9299C83.0397 19.6925 82.9227 19.4742 82.7503 19.3025C82.6375 19.1845 82.501 19.0911 82.3495 19.0283C82.198 18.9655 82.0348 18.9346 81.8706 18.9378V18.9378Z" fill="white"/>
<path d="M95.256 25.34C94.7791 24.8589 94.2056 24.4819 93.5723 24.2333C92.8772 23.9625 92.1355 23.8278 91.3885 23.8364C90.6847 23.8284 89.9888 23.983 89.3562 24.2879C88.7332 24.5941 88.1817 25.0254 87.737 25.5542H87.6917V24.0912H85.9987V39.0376H87.6917V32.3596H87.7349C88.0947 32.9721 88.6191 33.4741 89.25 33.81C89.9824 34.2153 90.8113 34.4193 91.6505 34.4008C92.3376 34.4051 93.0182 34.2698 93.6502 34.0032C94.2603 33.7474 94.8111 33.371 95.2687 32.8972C95.7334 32.4129 96.0987 31.8443 96.3447 31.2228C96.866 29.8668 96.866 28.369 96.3447 27.013C96.0966 26.39 95.7266 25.8215 95.256 25.34V25.34ZM94.6581 30.59C94.5001 31.0276 94.253 31.4285 93.9319 31.7679C93.6109 32.1073 93.2228 32.378 92.7917 32.5633C91.8384 32.9491 90.7699 32.9491 89.8167 32.5633C89.3849 32.378 88.9963 32.1071 88.6749 31.7673C88.3534 31.4275 88.1061 31.0261 87.9481 30.5879C87.6154 29.6355 87.6154 28.6003 87.9481 27.6479C88.1061 27.2097 88.3534 26.8083 88.6749 26.4685C88.9963 26.1287 89.3849 25.8578 89.8167 25.6725C90.7699 25.2867 91.8384 25.2867 92.7917 25.6725C93.2234 25.8578 93.612 26.1287 93.9335 26.4685C94.2549 26.8083 94.5023 27.2097 94.6603 27.6479C94.993 28.6003 94.993 29.6355 94.6603 30.5879L94.6581 30.59Z" fill="white"/>
<path d="M105.274 29.12C104.952 28.882 104.593 28.6971 104.211 28.5726C103.792 28.4328 103.364 28.3215 102.929 28.2394C102.604 28.1844 102.281 28.1129 101.962 28.0252C101.679 27.949 101.402 27.8483 101.137 27.7242C100.924 27.6287 100.731 27.4938 100.57 27.3266C100.433 27.1771 100.359 26.9811 100.364 26.7792C100.36 26.5614 100.425 26.3478 100.549 26.1674C100.67 25.9892 100.83 25.8391 101.015 25.7271C101.214 25.6083 101.431 25.5214 101.657 25.4695C101.889 25.4128 102.127 25.3839 102.366 25.3834C102.82 25.3694 103.269 25.4851 103.658 25.7166C104.01 25.9353 104.304 26.2332 104.517 26.586L105.929 25.6627C105.616 25.0524 105.108 24.5615 104.483 24.2662C103.854 23.9774 103.168 23.8308 102.474 23.8371C102.003 23.836 101.535 23.901 101.083 24.0303C100.65 24.1524 100.239 24.3414 99.8658 24.5903C99.5086 24.8286 99.2114 25.1444 98.9967 25.5136C98.7743 25.9068 98.6619 26.3513 98.6708 26.8016C98.6531 27.2424 98.7543 27.6799 98.9641 28.0693C99.1554 28.395 99.4225 28.6709 99.7432 28.8743C100.097 29.095 100.481 29.2649 100.884 29.379C101.319 29.5078 101.775 29.6224 102.253 29.7227C102.529 29.7801 102.797 29.8445 103.057 29.9159C103.301 29.9806 103.535 30.0781 103.752 30.2057C103.944 30.318 104.11 30.4678 104.241 30.646C104.372 30.8433 104.436 31.0761 104.426 31.3117C104.434 31.5592 104.366 31.8032 104.231 32.0117C104.096 32.2093 103.917 32.3744 103.709 32.4947C103.484 32.6274 103.238 32.7221 102.981 32.7747C102.72 32.8313 102.455 32.8601 102.188 32.8608C101.66 32.881 101.136 32.7544 100.678 32.4954C100.255 32.2299 99.884 31.893 99.5803 31.5L98.2345 32.5311C98.6511 33.1705 99.2425 33.6801 99.9402 34.0011C100.655 34.2816 101.42 34.4168 102.189 34.3987C102.69 34.3991 103.189 34.3416 103.677 34.2272C104.14 34.1213 104.582 33.936 104.981 33.6798C105.362 33.4298 105.677 33.0939 105.901 32.6998C106.145 32.2525 106.265 31.75 106.25 31.2424C106.264 30.806 106.174 30.3725 105.989 29.9761C105.821 29.64 105.576 29.347 105.274 29.12V29.12Z" fill="white"/>
<path d="M117.486 31.7576V24.0912H115.791V28.9912C115.796 29.5195 115.734 30.0463 115.606 30.5592C115.497 30.9989 115.305 31.4141 115.039 31.7828C114.787 32.1256 114.45 32.399 114.061 32.5773C113.613 32.7737 113.127 32.8694 112.638 32.8573C112.307 32.8838 111.974 32.8312 111.668 32.7042C111.361 32.5771 111.09 32.3793 110.878 32.1272C110.47 31.5417 110.271 30.8394 110.311 30.1301V24.0912H108.616V30.2974C108.611 30.86 108.687 31.4204 108.844 31.9613C108.98 32.4409 109.222 32.8847 109.552 33.2612C109.883 33.6292 110.295 33.9167 110.756 34.1012C111.307 34.3134 111.894 34.4157 112.484 34.4022C112.881 34.4054 113.277 34.3509 113.658 34.2405C114.002 34.1415 114.33 33.9972 114.635 33.8114C114.912 33.6426 115.165 33.4368 115.385 33.1996C115.583 32.9886 115.748 32.7496 115.874 32.4905H115.917C115.917 32.7775 115.925 33.0575 115.939 33.3305C115.954 33.6035 115.961 33.8756 115.961 34.1467H117.569C117.569 33.8168 117.555 33.4516 117.525 33.0512C117.496 32.6508 117.483 32.2196 117.486 31.7576Z" fill="white"/>
<path d="M135.804 26.2927C135.691 25.8064 135.468 25.3517 135.152 24.9627C134.833 24.5863 134.422 24.2971 133.957 24.1227C133.372 23.9141 132.753 23.8158 132.132 23.8329C131.457 23.8038 130.79 23.9799 130.219 24.3376C129.691 24.7123 129.247 25.1914 128.916 25.7446C128.829 25.5724 128.717 25.3755 128.579 25.1538C128.425 24.9144 128.23 24.7036 128.003 24.5308C127.724 24.321 127.413 24.1557 127.082 24.0408C126.638 23.8931 126.17 23.8239 125.702 23.8364C125.305 23.8332 124.909 23.8877 124.529 23.9981C124.184 24.0971 123.855 24.2414 123.55 24.4272C123.273 24.5962 123.021 24.802 122.801 25.039C122.603 25.25 122.438 25.489 122.312 25.7481H122.268C122.268 25.4611 122.261 25.1825 122.247 24.9081C122.233 24.6337 122.225 24.3642 122.225 24.0919H120.617C120.617 24.4218 120.632 24.787 120.66 25.1874C120.689 25.5878 120.704 26.0174 120.704 26.4761V34.1418H122.4V29.246C122.395 28.7175 122.457 28.1904 122.585 27.6773C122.693 27.2374 122.885 26.8221 123.152 26.4537C123.403 26.1108 123.74 25.8373 124.129 25.6592C124.577 25.4627 125.063 25.367 125.553 25.3792C125.843 25.3547 126.134 25.4066 126.398 25.5295C126.661 25.6525 126.887 25.8421 127.052 26.0792C127.416 26.8157 127.573 27.6351 127.508 28.4522V34.1432H129.2V28.343C129.195 27.9297 129.265 27.5188 129.407 27.1299C129.532 26.7851 129.725 26.4679 129.974 26.1961C130.208 25.9416 130.493 25.737 130.81 25.5948C131.131 25.4513 131.479 25.378 131.831 25.3799C132.25 25.3649 132.667 25.4456 133.048 25.6158C133.349 25.7595 133.61 25.9736 133.808 26.2395C133.999 26.5027 134.133 26.8024 134.2 27.1194C134.273 27.4511 134.309 27.7895 134.308 28.1288V34.1418H136V28.0427C136.006 27.4537 135.941 26.8661 135.804 26.2927Z" fill="white"/>
</g>
<defs>
<clipPath id="clip0_1_19">
<rect width="136" height="56" fill="white"/>
</clipPath>
</defs>
</svg>
